<svg aria-hidden="true" style="position: absolute; width: 0; height: 0; overflow: hidden;" version="1.1" xmlns="http://www.w3.org/2000/svg" xmlns:xlink="http://www.w3.org/1999/xlink">
<defs>
<symbol id="icon-darth-vader" viewBox="0 0 32 32">
<path d="M16 32c-0.057 0-0.113-0.001-0.171-0.003-0.579-0.021-2.585-0.117-4.105-0.451-1.865-0.41-2.907-0.677-3.788-1.089-0.694-0.324-0.911-0.808-0.978-1.108-0.696-0.155-2.884-0.748-4.629-2.359-0.749-0.691-1.185-1.356-1.436-1.93-0.003-0.007-0.007-0.015-0.010-0.022-0.448-1.043-0.284-1.783-0.273-1.83 0.004-0.017 0.010-0.034 0.016-0.050l5.364-12.388c-0.047-0.551-0.196-3.617 1.921-6.719 1.992-2.919 5.516-3.244 6.585-3.273v-0.478c0-0.165 0.134-0.3 0.3-0.3h2.406c0.165 0 0.3 0.134 0.3 0.3v0.478c1.069 0.029 4.593 0.354 6.585 3.273 2.117 3.103 1.968 6.168 1.921 6.719l5.364 12.388c0.007 0.016 0.013 0.033 0.016 0.050 0.011 0.047 0.174 0.781-0.268 1.818-0.006 0.018-0.013 0.035-0.022 0.052-0.252 0.571-0.687 1.229-1.428 1.913-1.745 1.611-3.934 2.204-4.629 2.359-0.067 0.299-0.284 0.784-0.978 1.108-0.881 0.411-1.924 0.679-3.788 1.089-1.519 0.334-3.526 0.429-4.105 0.451-0.058 0.002-0.114 0.003-0.171 0.003zM7.525 29.058c0.003 0.019 0.003 0.039 0.002 0.059-0 0.015-0.002 0.488 0.662 0.798 0.83 0.387 1.843 0.646 3.664 1.046 1.47 0.323 3.432 0.416 3.998 0.437 0.1 0.004 0.197 0.004 0.297 0 0.566-0.021 2.528-0.114 3.998-0.437 1.821-0.4 2.833-0.659 3.664-1.046 0.664-0.31 0.662-0.783 0.662-0.804-0-0.017 0.001-0.034 0.003-0.050-0.068-0.327-0.329-1.488-0.905-3.067-0.489-1.34-1.21-2.446-1.57-2.954-0.152 0.137-0.343 0.233-0.553 0.269-0.183 0.279-1.058 1.536-2.523 2.425-1.582 0.959-2.769 1.354-2.83 1.374-0.030 0.010-0.062 0.015-0.094 0.015v0 0c-0.033 0-0.064-0.005-0.094-0.015-0.068-0.022-1.253-0.418-2.83-1.374-1.465-0.888-2.34-2.145-2.523-2.425-0.211-0.036-0.401-0.131-0.553-0.269-0.361 0.509-1.081 1.614-1.57 2.954-0.574 1.574-0.836 2.733-0.905 3.064zM1.488 24.928c0.227 0.479 0.61 1.035 1.246 1.622 1.544 1.425 3.507 2.009 4.246 2.188 0.080-0.356 0.239-1.002 0.511-1.855 0.055-0.189 0.356-1.337 0.355-3.859-0.001-2.78-0.803-5.818-0.819-5.881-0.001-0.002-0.001-0.005-0.002-0.007 0 0 0 0 0 0s0-0 0-0c-0.017-0.071-0.008-0.142 0.022-0.202 0-0 0-0 0-0s0 0 0 0c0.006-0.013 0.014-0.026 0.022-0.038 0.037-0.054 0.091-0.096 0.158-0.116 0 0 0 0 0.001-0v0c0.005-0.002 0.010-0.003 0.015-0.004 0 0 0 0 0 0 0.007-0.002 0.013-0.003 0.020-0.004l6.912-1.303c0.123-0.023 0.248 0.033 0.312 0.14s0.055 0.244-0.024 0.342l-3.78 4.694c-0.055 0.068-0.136 0.109-0.223 0.112-0.090 0.001-0.171-0.032-0.23-0.096l-2.366-2.559c0.247 1.166 0.579 3.078 0.58 4.923 0 0.569-0.014 1.071-0.038 1.509 0.509-1.023 1.047-1.775 1.257-2.054-0.020-0.084-0.031-0.171-0.031-0.261 0-0.609 0.495-1.105 1.105-1.105 0.311 0 0.593 0.129 0.794 0.337l3.388-5.914c0.247-0.43 0.636-0.677 1.068-0.677s0.821 0.247 1.068 0.677l0.445 0.777c0.004 0.006 0.007 0.012 0.010 0.018l2.941 5.133c0.202-0.216 0.489-0.352 0.808-0.352 0.609 0 1.105 0.496 1.105 1.105 0 0.090-0.011 0.177-0.031 0.261 0.221 0.293 0.805 1.11 1.336 2.215-0.029-0.476-0.048-1.031-0.047-1.671 0.001-1.897 0.352-3.865 0.6-5.020l-2.456 2.656c-0.059 0.064-0.145 0.097-0.23 0.096-0.087-0.003-0.169-0.044-0.223-0.112l-3.78-4.694c-0.079-0.098-0.088-0.234-0.024-0.342s0.188-0.164 0.312-0.14l6.897 1.3c0.036-0.004 0.073-0.001 0.11 0.009 0.16 0.043 0.255 0.207 0.212 0.367-0.008 0.031-0.818 3.089-0.819 5.881-0.001 2.762 0.36 3.877 0.364 3.888 0.023 0.069 0.020 0.141-0.005 0.204 0.228 0.738 0.366 1.3 0.438 1.622 0.74-0.18 2.706-0.766 4.246-2.188 0.636-0.587 1.018-1.143 1.245-1.623l-5.727-13.615c-0.152-0.215-1.52-2.052-3.919-2.292-2.3-0.23-3.004 0.935-3.101 1.121-0.030 0.221-0.17 0.743-0.806 0.992-0.31 0.121-0.551 0.062-0.699-0.009-0.102-0.049-0.187-0.115-0.257-0.187-0.071 0.073-0.157 0.14-0.259 0.19-0.212 0.102-0.454 0.105-0.699 0.009-0.643-0.251-0.778-0.782-0.807-0.999-0.096-0.184-0.801-1.349-3.1-1.119-2.398 0.239-3.766 2.075-3.919 2.292l-5.729 13.618zM11.219 23.214c0.331 0.447 1.081 1.348 2.167 2.007 1.279 0.776 2.307 1.174 2.613 1.284 0.306-0.111 1.334-0.508 2.613-1.284 1.087-0.659 1.836-1.56 2.167-2.007-0.336-0.163-0.578-0.492-0.618-0.879h-8.325c-0.040 0.387-0.282 0.716-0.618 0.879zM1.189 23.367c-0.013 0.073-0.046 0.32 0.017 0.688l5.471-13.007c0.007-0.017 0.016-0.034 0.026-0.049 0.062-0.094 1.547-2.295 4.373-2.578 2.296-0.23 3.268 0.797 3.589 1.271 0.216-0.047 0.54-0.095 0.812-0.037 0.219 0.047 0.396 0.159 0.524 0.269 0.128-0.11 0.303-0.22 0.521-0.267 0.272-0.058 0.596-0.011 0.812 0.037 0.321-0.474 1.293-1.501 3.589-1.271 2.826 0.283 4.311 2.485 4.373 2.578 0.010 0.016 0.019 0.032 0.026 0.049l5.47 13.003c0.063-0.369 0.031-0.616 0.018-0.687l-5.383-12.43c-0.021-0.049-0.029-0.102-0.023-0.154 0.004-0.032 0.344-3.234-1.813-6.394-1.805-2.646-5.106-2.972-6.093-3.010v6.697c0.686-0.487 1.995-1.244 3.458-1.187 2.089 0.081 3.811 1.722 3.884 1.792 0.119 0.115 0.122 0.304 0.008 0.423s-0.304 0.123-0.423 0.008c-0.016-0.016-1.634-1.552-3.491-1.624-1.852-0.069-3.517 1.41-3.533 1.425-0.088 0.079-0.215 0.099-0.322 0.051s-0.178-0.155-0.178-0.274v-7.615c0-0.015 0.001-0.030 0.003-0.044v-0.433h-1.807v0.432c0.002 0.015 0.003 0.029 0.003 0.044v7.615c0 0.118-0.070 0.225-0.178 0.274s-0.235 0.028-0.322-0.051c-0.016-0.015-1.68-1.497-3.533-1.425-1.857 0.072-3.475 1.609-3.491 1.624-0.119 0.115-0.309 0.111-0.423-0.008s-0.111-0.308 0.008-0.423c0.072-0.070 1.795-1.71 3.884-1.792 1.46-0.059 2.772 0.7 3.458 1.186v-6.697c-0.987 0.037-4.288 0.364-6.093 3.010-2.156 3.16-1.816 6.363-1.812 6.395 0.006 0.052-0.002 0.105-0.023 0.154l-5.383 12.43zM21.261 21.714c-0.279 0-0.506 0.227-0.506 0.506s0.227 0.506 0.506 0.506 0.506-0.227 0.506-0.506-0.227-0.506-0.506-0.506zM10.739 21.714c-0.279 0-0.505 0.227-0.505 0.506s0.227 0.506 0.505 0.506 0.505-0.227 0.505-0.506-0.227-0.506-0.505-0.506zM18.794 21.736h1.123l-1.123-1.96v1.96zM17.547 21.736h0.648v-3.001c0-0.002 0-0.003 0-0.005l-0.648-1.131v4.137zM16.3 21.736h0.648v-5.183l-0.411-0.717c-0.066-0.116-0.147-0.207-0.237-0.271v6.171zM15.052 21.736h0.648v-6.186c-0.099 0.064-0.188 0.161-0.259 0.286l-0.392 0.683c0.002 0.013 0.003 0.026 0.003 0.039v5.178zM13.805 21.736h0.648v-4.175l-0.651 1.136c0.002 0.013 0.003 0.026 0.003 0.039v3.001zM12.061 21.736h1.145v-1.998l-1.145 1.998zM18.51 16.207l3.053 3.791 2.533-2.739-5.585-1.052zM7.905 17.26l2.533 2.739 3.053-3.791-5.585 1.052zM14.89 10.259c0.056 0.111 0.165 0.238 0.371 0.319 0.118 0.046 0.183 0.027 0.222 0.008 0.069-0.033 0.126-0.104 0.167-0.171-0.070-0.068-0.174-0.147-0.298-0.174-0.13-0.028-0.309-0.010-0.462 0.017zM16.352 10.416c0.041 0.066 0.098 0.136 0.167 0.168 0.038 0.018 0.103 0.037 0.221-0.009 0.203-0.079 0.311-0.204 0.368-0.315-0.16-0.028-0.336-0.043-0.459-0.017s-0.226 0.104-0.296 0.172zM20.723 15.159c-0.589 0-1.175-0.053-1.689-0.196-0.971-0.27-1.563-0.959-1.711-1.993-0.012-0.083-0.019-0.172-0.022-0.265-0.027-0.99 0.548-1.941 1.464-2.424 0.711-0.375 1.527-0.565 2.425-0.565 2.479 0 3.39 2.074 3.443 3.078 0.046 0.864-0.39 1.953-1.765 2.175-0.619 0.1-1.385 0.189-2.146 0.189zM21.191 10.316c-0.8 0-1.522 0.167-2.146 0.496-0.716 0.377-1.165 1.114-1.144 1.877 0.002 0.069 0.008 0.136 0.016 0.197 0 0 0 0 0 0 0.113 0.791 0.543 1.296 1.278 1.5 1.13 0.314 2.727 0.13 3.579-0.007 1.237-0.199 1.279-1.238 1.262-1.552-0.028-0.53-0.593-2.511-2.845-2.511zM11.277 15.159c-0.761 0-1.526-0.089-2.146-0.189-1.376-0.222-1.811-1.31-1.765-2.175 0.053-1.004 0.964-3.078 3.443-3.078 0.898 0 1.714 0.19 2.425 0.565 0.916 0.483 1.491 1.434 1.464 2.423-0.003 0.092-0.010 0.181-0.022 0.265-0.148 1.034-0.739 1.723-1.711 1.993-0.514 0.142-1.1 0.196-1.689 0.196zM10.809 10.316c-2.252 0-2.817 1.98-2.845 2.511-0.016 0.314 0.026 1.352 1.262 1.552 0.852 0.137 2.449 0.321 3.579 0.007 0.735-0.204 1.165-0.709 1.278-1.5 0.009-0.061 0.014-0.127 0.016-0.197v0c0.021-0.763-0.428-1.5-1.144-1.877-0.624-0.329-1.346-0.495-2.146-0.495zM16.764 14.274h-1.527c-0.165 0-0.3-0.134-0.3-0.3s0.134-0.3 0.3-0.3h1.527c0.165 0 0.3 0.134 0.3 0.3s-0.134 0.3-0.3 0.3zM16.472 13.369h-0.944c-0.165 0-0.3-0.134-0.3-0.3s0.134-0.3 0.3-0.3h0.944c0.165 0 0.3 0.134 0.3 0.3s-0.134 0.3-0.3 0.3zM16.472 12.45h-0.944c-0.165 0-0.3-0.134-0.3-0.3s0.134-0.3 0.3-0.3h0.944c0.165 0 0.3 0.134 0.3 0.3s-0.134 0.3-0.3 0.3z"></path>
</symbol>
</defs>
</svg>